inDegrees=no
num_controls=7
num_derivatives=13
num_iterations=125
num_multipliers=7
num_parameters=0
num_slacks=7
num_states=26
objective=0.431103
objective_accelerations=0.050053
objective_balance=0.006727
objective_effort=0.031075
objective_height=0.342088
objective_ligament=0.001161
solver_duration=1597.305251
status=Solve_Succeeded
success=true
DataType=double
version=3
OpenSimVersion=4.5
endheader
time	/jointset/ground_pelvis/pelvis_tilt/value	/jointset/ground_pelvis/pelvis_tx/value	/jointset/ground_pelvis/pelvis_ty/value	/jointset/hip_l/hip_flexion_l/value	/jointset/hip_l/hip_adduction_l/value	/jointset/hip_l/hip_rotation_l/value	/jointset/back/lumbar_extension/value	/jointset/patellofemoral_l/patellar_flexion_l/value	/jointset/knee_l/knee_flexion_l/value	/jointset/knee_l/knee_adduction_l/value	/jointset/knee_l/knee_rotation_l/value	/jointset/ankle_l/ankle_angle_l/value	/jointset/subtalar_l/subtalar_angle_l/value	/jointset/ground_pelvis/pelvis_tilt/speed	/jointset/ground_pelvis/pelvis_tx/speed	/jointset/ground_pelvis/pelvis_ty/speed	/jointset/hip_l/hip_flexion_l/speed	/jointset/hip_l/hip_adduction_l/speed	/jointset/hip_l/hip_rotation_l/speed	/jointset/back/lumbar_extension/speed	/jointset/patellofemoral_l/patellar_flexion_l/speed	/jointset/knee_l/knee_flexion_l/speed	/jointset/knee_l/knee_adduction_l/speed	/jointset/knee_l/knee_rotation_l/speed	/jointset/ankle_l/ankle_angle_l/speed	/jointset/subtalar_l/subtalar_angle_l/speed	/forceset/tau_hip_flexion_l	/forceset/tau_hip_adduction_l	/forceset/tau_hip_rotation_l	/forceset/tau_knee_flexion_l	/forceset/tau_ankle_angle_l	/forceset/tau_subtalar_angle_l	/forceset/tau_lumbar_extension	lambda_cid13_p0	lambda_cid13_p1	lambda_cid13_p2	lambda_cid13_p3	lambda_cid13_p4	lambda_cid13_p5	lambda_cid14_p0	/jointset/ground_pelvis/pelvis_tilt/accel	/jointset/ground_pelvis/pelvis_tx/accel	/jointset/ground_pelvis/pelvis_ty/accel	/jointset/hip_l/hip_flexion_l/accel	/jointset/hip_l/hip_adduction_l/accel	/jointset/hip_l/hip_rotation_l/accel	/jointset/back/lumbar_extension/accel	/jointset/patellofemoral_l/patellar_flexion_l/accel	/jointset/knee_l/knee_flexion_l/accel	/jointset/knee_l/knee_adduction_l/accel	/jointset/knee_l/knee_rotation_l/accel	/jointset/ankle_l/ankle_angle_l/accel	/jointset/subtalar_l/subtalar_angle_l/accel	gamma_cid13_p0	gamma_cid13_p1	gamma_cid13_p2	gamma_cid13_p3	gamma_cid13_p4	gamma_cid13_p5	gamma_cid14_p0
1.5	-0.3335847663913942	-0.02933113547431439	0.7653686508825509	1.168825165644652	-0.3050037589052172	0.01226377270281131	-0.3387941288553014	0.8207785648013024	0.8207785648012778	-0.1736353731623827	0.1672273876806392	0.1674971702378888	-0.01871577619405013	0.4183613374202461	0.1519861678701777	0.5028938232867093	-2.079779992373139	-0.01397362904320355	-0.6965343820118514	0.5711431528219048	-2.094461553604037	-2.094461553603931	0.005560946929145939	-0.04359385906021124	-0.556496293416222	-0.1080238503065876	-0.1920265440201113	0.02043971035634313	-0.02592495358847978	-0.2555283682191931	0.0956023607837474	0.03879845962583851	0.1912836404730826	-7.485607143584761	-18.25671958179541	5.611924964976597	-1.889873865178569	-607.2070570969771	-59.17171336186722	-20.25465447548565	0.5011394621237554	0.5374605124437354	-0.4104582859962104	-1.326316827934189	0.6653474650151304	-0.3725285703703319	1.610646582056507	-1.355096773413918	-1.355096773414017	0.044223837840536	-0.08125679778714574	-0.5577094210724578	0.6915075305325935	4.053069263811434e-07	3.619346827791661e-07	-2.567044520005441e-06	-2.866402282868685e-07	4.812331709708406e-07	2.596169574742965e-07	3.935834824123059e-07
1.51	-0.329376226871905	-0.02778450614628823	0.7703760658674916	1.147963055181158	-0.3051112290870137	0.005282857217830026	-0.3330032704155432	0.7997684354786692	0.7997684354786725	-0.1735813838878444	0.1667870879892852	0.1619047757152627	-0.01976276278760985	0.4232916960940953	0.15732423305083	0.4984866406569093	-2.092357888964329	-0.007494199276644533	-0.6995659406305635	0.5869588431046027	-2.107266420683231	-2.107266420683187	0.005243736357875874	-0.04446268155808333	-0.5618828826328559	-0.1013481231162936	-0.1860741297093528	0.01994572924154437	-0.02577573906737855	-0.2525625648749275	0.09713461878094555	0.038674087645041	0.186297640708159	-6.774359751181879	-18.4217341047665	5.746167803555154	-2.117977916602337	-603.0224873382002	-59.44277831616558	-21.53431929336412	0.4807923428890984	0.5296005286670662	-0.4711206397147075	-1.180842097704295	0.6435330140434443	-0.2556659047857852	1.556576447608092	-1.198584261052624	-1.198584261061955	-0.06870007900946296	-0.08864769644844568	-0.5141883492369399	0.6596472721663841	4.372827637973724e-07	4.596155045229287e-07	-2.681318003771254e-06	-2.93113274433372e-07	5.185951124786824e-07	3.531453330754511e-07	4.180203033402209e-07
1.52	-0.3251200221111025	-0.02618497196489734	0.7753363545484857	1.126983702547153	-0.3051530465148314	-0.001725813132770137	-0.3270563458337117	0.7786391769680675	0.7786391769680988	-0.1735303680338979	0.1663383095288217	0.1562615043650147	-0.0207421837174889	0.4278943856828882	0.1625671385431259	0.4934685624973966	-2.103228426475235	-0.0008430782474002372	-0.7020853551358407	0.6023563812365674	-2.118287391197645	-2.118287391197664	0.004966262810658775	-0.04528961288240381	-0.5666716589406131	-0.09451071757045607	-0.1801217153985926	0.01945174812674972	-0.02562652454627399	-0.2495967615306612	0.09866687677814519	0.03854971566424852	0.1813116409432361	-6.067406345198218	-18.58797333182818	5.882865624892387	-2.366811630439039	-598.9319927452029	-59.8013797463874	-22.80868413289684	0.4356056451125099	0.5184285747724416	-0.5326373919387491	-0.9848450118773188	0.6996857175521854	-0.2700997476833319	1.527016151909924	-0.9983174604579896	-0.9983174604582155	0.05217124265112984	-0.07287856307682419	-0.4381468392971157	0.7238432016413084	4.890174386591593e-07	5.336794052969952e-07	-2.911591587571109e-06	-3.176877092677317e-07	5.755971052303693e-07	4.558382199281845e-07	4.56953374768051e-07
1.53	-0.3208193816254035	-0.02453354525359277	0.7802434841608703	1.105904012789145	-0.3051279096203596	-0.008756570230855279	-0.3209577294763427	0.7574084265323885	0.7574084265324167	-0.1734828858400897	0.1658812537640875	0.1505731920494052	-0.02165291926961378	0.4321744855814954	0.1676958638195163	0.4878603683092984	-2.112415000012045	0.005887344505221809	-0.7039850962681187	0.6172873230976902	-2.127555485359124	-2.127555485359125	0.004535762379780411	-0.04611241847095806	-0.570888510784115	-0.08762162769782755	-0.1741730093179152	0.01893401684884989	-0.02539830473353583	-0.2466367574522886	0.1000796419784023	0.03816456755559651	0.1762967078634511	-5.414727780193321	-18.6197935789098	5.984811716675391	-2.497561422489226	-594.9447556248535	-59.94506155053045	-24.07581763951206	0.4153806871988364	0.5066665298932705	-0.589320151900335	-0.841314954314251	0.6627099397381775	-0.1372796171183811	1.464198132283951	-0.8450818825952309	-0.8450818825924733	-0.08988704401671643	-0.08494178086315221	-0.3981243053404244	0.6739640704822796	5.617458783068511e-07	5.826503275407597e-07	-3.265115277657134e-06	-3.614948695829386e-07	6.534666524286414e-07	5.682683999857199e-07	5.112887123520407e-07
1.54	-0.3164777064357256	-0.0228315168843601	0.7850916498874428	1.084741307009823	-0.3050348706212374	-0.01580379840448589	-0.3147121907145484	0.7360941898573736	0.7360941898573999	-0.1734395539222016	0.1654163778986456	0.144845777225668	-0.02249425948493064	0.4361013264786629	0.1726874701287438	0.4816757853350006	-2.119831630738114	0.0127373426826814	-0.7053795702451302	0.6317408621216331	-2.134984639064701	-2.134984639064684	0.004136207626526566	-0.04685363302424956	-0.5744921605661648	-0.08063165020885257	-0.1682243032372357	0.01841628557095412	-0.02517008492079371	-0.2436767533739151	0.101492407178661	0.03777941944694942	0.1712817747836667	-4.76458927560045	-18.65522161124766	6.091964430427067	-2.662890716049032	-591.0318536832748	-60.1941775939408	-25.33443080669501	0.3649538448245706	0.4910047813398428	-0.6479151491786711	-0.6308564497294378	0.7236008025196955	-0.1690463166299911	1.431535584473963	-0.6305293692778748	-0.6305293692779053	0.05836037817603433	-0.05656035602427519	-0.3155064270067237	0.7440207249105999	5.990869504698261e-07	7.08835726460082e-07	-3.406452658703256e-06	-3.695770989541005e-07	7.028050827651265e-07	6.850976491750917e-07	5.412644923412874e-07
1.55	-0.3120985147417342	-0.02108025423820003	0.7898752025100316	1.063513066673915	-0.3048728825410382	-0.02286256862004039	-0.3083247083030489	0.7147147290558589	0.7147147290558776	-0.173400124468691	0.1649445165079881	0.1390854233754145	-0.02326533696890531	0.439673064172535	0.1775425780710652	0.4749471301261142	-2.125524419228057	0.01967038563047474	-0.7062426469679514	0.6456633442227316	-2.140603585851163	-2.140603585851173	0.003727643738996777	-0.04754999667943321	-0.5774659593348549	-0.07357456215334124	-0.1620596392333241	0.0172737112020506	-0.02491469136369384	-0.2412970462537265	0.1035704161428099	0.03740093509699348	0.1661250570579869	-3.916149997811575	-18.73170090061203	6.209584360678971	-2.959812905319866	-587.371056598592	-60.6242695431982	-26.58373923051765	0.3437444338842217	0.479328021703504	-0.6983363815822088	-0.4946171795013504	0.6800507912450351	-0.02465587592942916	1.358763129597999	-0.4820958721849807	-0.4820958721890511	-0.09377288551946547	-0.08024139306640798	-0.2714190128338501	0.6881594653878687	5.956556209656295e-07	9.239856311142813e-07	-3.303314509768633e-06	-3.364979948462564e-07	7.192707045434675e-07	8.069953910598399e-07	5.431738255365925e-07
1.56	-0.3076855135303608	-0.0192811276684117	0.7945888694455636	1.042236673026932	-0.3046411850812937	-0.02992591310798753	-0.3018007693492044	0.6932881750787088	0.6932881750787193	-0.173365442276716	0.1644648780762182	0.1332987110552673	-0.02396552224842159	0.4428632299550346	0.1822602548543958	0.4676986479236844	-2.129462292952988	0.02667921859170362	-0.7062944247236221	0.6590321705906379	-2.14440327419181	-2.144403274191848	0.003186755319387736	-0.04840904124665679	-0.5797638545448933	-0.06645320931717122	-0.1558949752294131	0.01613113683314624	-0.02465929780659471	-0.2389173391335382	0.1056484251069585	0.0370224507470365	0.1609683393323066	-3.067875303290219	-18.81145505325209	6.331502306248017	-3.299190741332653	-583.7534599228726	-61.15605528668356	-27.8231956682408	0.2886394625500721	0.4635185495417014	-0.7518805478873626	-0.2798734967272652	0.7387588052068027	-0.006786523199893835	1.320804437835497	-0.2666776801149219	-0.2666776801149245	0.03189547176018394	-0.08909653843226269	-0.1803257152764038	0.7568736810423322	5.087159081130942e-07	1.233490542093802e-06	-2.794743870250636e-06	-2.299165654426347e-07	6.508141771097821e-07	8.843284162356617e-07	4.941032405639366e-07
1.57	-0.3032426330155541	-0.01743564470059193	0.7992274554460543	1.020930224985229	-0.3043386538799285	-0.03698850992277102	-0.2951459225572804	0.6718335472179191	0.6718335472179298	-0.1733343365782647	0.1639777967882958	0.1274926172275135	-0.02459369527085989	0.4456497682839176	0.1867995633973101	0.4599362930985958	-2.131516982700523	0.0338224229561663	-0.706096147811459	0.6718251916977049	-2.146203827441985	-2.146203827442004	0.003000519154305111	-0.04901944206859785	-0.5813509464059584	-0.05919016251413123	-0.1498966617724744	0.01527453012020246	-0.02434838857823475	-0.2361732760480376	0.1070299789451309	0.0362765029910783	0.1558669065001573	-2.463008530108732	-18.67385742396532	6.401469391568807	-3.321137036132393	-580.2123589533463	-61.27072028044514	-29.03929684947908	0.2642179031143724	0.4436372712754192	-0.8006766767201189	-0.1216878328614883	0.7013924262540363	0.05279163074544296	1.241751532677571	-0.08903684182873796	-0.08903684182595263	-0.04872617225788548	-0.04857920765007229	-0.1322800601592926	0.7095443358352048	3.173907160751366e-07	1.660939210979974e-06	-1.779382617503425e-06	-3.1457229419292e-08	4.762049631610645e-07	9.059555455253262e-07	3.813077578813299e-07
